<svg width="382" height="448" viewBox="0 0 382 448" fill="none" xmlns="http://www.w3.org/2000/svg">
<path opacity="0.2" d="M381.743 448C382.293 440.923 381.943 433.805 380.702 426.817C374.185 390.148 344.078 355.075 306.798 355.346C285.406 355.488 265.682 366.814 248.226 379.236C230.77 391.658 213.998 405.761 193.761 412.927C173.523 420.093 148.452 418.625 133.933 402.884C122.524 390.547 117.475 370.119 101.131 366.301C80.666 361.514 65.2776 387.812 44.3558 389.835C29.5095 391.259 16.1035 379.62 9.75711 366.13C3.41068 352.639 2.284 337.41 -0.554077 322.78C-3.39212 308.15 -8.64041 292.864 -20.5204 283.932C-37.9908 270.74 -62.8916 275.584 -83.2715 283.419C-103.651 291.254 -124.887 301.739 -146.436 297.836C-176.871 292.337 -194.926 260.925 -204.909 231.693C-217.906 194.011 -224.762 154.489 -225.218 114.635C-225.474 89.5487 -223.264 63.8352 -230.708 39.8881C-235.728 23.6764 -246.738 8.27677 -261 0V448H381.743Z" fill="#FFC634"/>
</svg>
